<?xml version="1.0" standalone="no"?>
<!DOCTYPE svg PUBLIC "-//W3C//DTD SVG 20010904//EN"
 "http://www.w3.org/TR/2001/REC-SVG-20010904/DTD/svg10.dtd">
<svg version="1.0" xmlns="http://www.w3.org/2000/svg"
 width="260.000000pt" height="30.000000pt" viewBox="0 0 600.000000 111.000000"
 preserveAspectRatio="xMidYMid meet">
<metadata>
Created by potrace 1.10, written by Peter Selinger 2001-2011
</metadata>
<g transform="translate(0.000000,111.000000) scale(0.100000,-0.100000)"
fill="#7c1c54" stroke="none">
<path d="M3335 1036 c-16 -12 -17 -16 -6 -30 17 -21 47 -21 55 0 6 16 -9 44
-23 44 -4 0 -16 -6 -26 -14z"/>
<path d="M3008 1013 c-21 -5 -22 -16 -4 -108 8 -38 12 -94 9 -125 -4 -61 6
-86 32 -77 13 6 15 15 10 51 -11 73 23 73 67 1 21 -34 33 -45 53 -45 14 0 25
6 25 13 0 12 -33 56 -75 99 -17 17 -13 58 5 58 17 0 44 50 33 61 -14 14 -43
-5 -72 -47 -13 -19 -28 -31 -33 -28 -5 4 -8 34 -7 68 3 58 -4 87 -19 85 -4 -1
-15 -3 -24 -6z"/>
<path d="M3226 1012 c-10 -17 -4 -187 9 -249 6 -24 59 -58 75 -48 17 11 11 42
-11 56 -16 11 -21 27 -24 77 -2 54 0 64 17 73 38 20 48 5 48 -73 0 -40 3 -83
6 -96 8 -30 39 -25 38 6 0 12 -1 61 -2 108 l-2 87 -38 -7 c-45 -7 -69 7 -74
44 -3 25 -31 39 -42 22z"/>
<path d="M2683 1003 c-8 -3 -10 -20 -6 -56 5 -43 3 -50 -8 -39 -7 6 -29 12
-49 12 -29 0 -41 -6 -61 -32 -20 -27 -24 -43 -22 -90 2 -60 12 -79 66 -113 25
-16 29 -16 53 0 14 9 32 14 39 11 27 -10 33 20 30 154 -2 74 -3 138 -4 141 -1
10 -24 17 -38 12z m1 -167 c11 -42 6 -76 -16 -96 -28 -26 -43 -25 -69 1 -31
31 -31 90 0 123 23 25 25 25 52 9 15 -9 30 -26 33 -37z"/>
<path d="M3735 974 c-8 -9 -21 -14 -29 -11 -32 13 -40 -10 -37 -105 3 -101 12
-131 37 -121 14 5 15 18 9 85 -5 68 -4 83 11 99 46 51 90 -1 78 -93 -5 -39 -3
-52 11 -68 21 -23 41 -26 48 -6 3 7 3 50 0 95 -5 72 -9 86 -33 112 -31 32 -70
38 -95 13z"/>
<path d="M1824 945 c-9 -22 9 -37 37 -33 16 2 24 10 24 23 0 26 -52 35 -61 10z"/>
<path d="M3456 939 c-43 -51 -42 -134 2 -181 21 -23 34 -28 72 -28 38 0 51 5
74 29 36 37 39 113 6 166 -21 33 -24 35 -79 35 -45 0 -60 -4 -75 -21z m121
-33 c3 -3 8 -25 10 -49 4 -36 1 -49 -16 -66 -44 -44 -101 -11 -101 58 0 53 22
75 68 67 19 -3 37 -7 39 -10z"/>
<path d="M2776 921 c-4 -5 -3 -48 0 -95 5 -63 12 -91 26 -106 22 -23 79 -27
100 -7 11 12 16 12 27 0 27 -30 37 5 31 112 -5 103 -13 119 -49 96 -11 -7 -11
-17 -1 -60 7 -28 9 -62 6 -76 -8 -33 -42 -50 -72 -36 -21 9 -23 17 -26 93 -2
68 -6 83 -20 86 -9 2 -19 -1 -22 -7z"/>
<path d="M2346 905 c-36 -28 -56 -69 -56 -118 0 -41 5 -52 36 -82 59 -58 135
-38 170 44 21 49 -4 129 -47 154 -37 21 -77 22 -103 2z m96 -58 c11 -18 10
-85 -2 -108 -13 -24 -61 -25 -83 -1 -29 32 -26 104 6 120 25 12 68 6 79 -11z"/>
<path d="M1972 881 l-43 -16 5 -144 c3 -79 9 -148 15 -154 18 -18 31 4 31 54
0 27 5 49 10 49 6 0 10 -4 10 -10 0 -23 59 -9 89 21 28 28 31 36 31 94 0 60
-2 65 -35 94 -40 35 -51 36 -113 12z m86 -46 c29 -33 30 -97 2 -125 -25 -25
-41 -25 -68 0 -30 28 -30 95 0 127 27 29 39 29 66 -2z"/>
<path d="M2181 893 c-32 -4 -33 -6 -26 -36 5 -18 7 -58 6 -90 -3 -66 20 -117
43 -98 9 8 11 35 8 96 -5 87 -3 90 34 86 16 -2 37 26 29 39 -6 10 -29 11 -94
3z"/>
<path d="M1605 836 c-20 -27 -27 -47 -27 -78 1 -24 6 -44 11 -46 6 -2 11 -10
11 -17 0 -33 117 -64 135 -35 4 6 11 8 16 4 5 -3 2 -18 -8 -35 -14 -23 -24
-29 -52 -29 -19 0 -42 7 -52 16 -10 9 -23 13 -28 9 -35 -21 22 -75 79 -75 31
0 44 7 70 37 l32 36 -4 114 c-2 62 -7 116 -11 119 -3 4 -37 9 -75 12 l-69 4
-28 -36z m114 -15 c23 -15 26 -93 4 -119 -27 -34 -68 -22 -83 23 -12 35 -4 85
14 97 15 10 48 10 65 -1z"/>
<path d="M1843 863 c-9 -3 -11 -18 -8 -41 2 -20 7 -74 10 -119 5 -78 4 -83
-20 -106 -23 -21 -25 -25 -10 -37 21 -18 63 1 70 32 8 36 -9 271 -20 274 -5 1
-16 0 -22 -3z"/>
<path d="M5570 682 c-16 -6 -12 -30 6 -34 26 -5 42 -72 43 -174 0 -74 -3 -96
-14 -101 -8 -3 -15 -14 -15 -25 0 -18 5 -20 31 -14 17 3 59 6 93 6 52 1 66 5
96 30 30 25 35 34 35 73 0 37 -5 49 -27 67 -31 24 -36 45 -13 54 25 9 19 69
-11 97 -23 22 -34 24 -120 24 -52 0 -98 -1 -104 -3z m167 -40 c23 -15 25 -57
3 -85 -25 -32 -55 -35 -70 -8 -11 22 -14 84 -3 94 9 9 55 9 70 -1z m25 -159
c22 -20 24 -66 2 -87 -16 -17 -61 -21 -81 -8 -9 6 -18 72 -14 105 2 14 75 7
93 -10z"/>
<path d="M5354 643 c-4 -20 -13 -48 -20 -62 -8 -14 -14 -31 -14 -37 0 -7 -7
-25 -15 -40 -8 -16 -15 -37 -15 -46 0 -9 -4 -19 -9 -23 -5 -3 -12 -19 -16 -36
-4 -19 -16 -34 -30 -39 -58 -22 -30 -53 44 -47 60 5 73 13 48 31 -22 17 -22
58 1 79 22 20 92 23 110 5 15 -15 16 -64 2 -73 -5 -3 -10 -12 -10 -19 0 -9 17
-12 58 -10 105 3 101 1 61 37 -32 29 -69 91 -69 115 0 6 -6 23 -14 39 -28 55
-46 101 -46 120 0 24 -19 43 -42 43 -12 0 -19 -11 -24 -37z m40 -95 c23 -45
20 -67 -10 -74 -34 -9 -53 10 -36 36 6 11 12 31 12 45 0 34 15 31 34 -7z"/>
<path d="M3900 633 c-14 -3 -31 -10 -39 -16 -11 -9 -8 -15 12 -32 19 -15 26
-31 29 -65 3 -42 1 -45 -22 -48 -39 -5 -86 -33 -104 -62 -11 -20 -14 -41 -9
-80 5 -44 11 -55 37 -71 21 -14 41 -18 61 -14 17 3 39 6 50 6 79 2 106 21 65
47 -19 11 -20 23 -20 161 0 82 -3 156 -6 165 -6 16 -10 17 -54 9z m-5 -207
c12 -9 20 -28 21 -57 4 -67 -2 -79 -41 -79 -28 0 -37 6 -50 30 -21 41 -19 61
10 93 30 31 34 32 60 13z"/>
<path d="M3253 593 c-26 -5 -30 -25 -8 -43 10 -8 15 -30 15 -61 0 -26 5 -51
10 -54 16 -10 12 -158 -5 -191 -19 -38 -7 -48 38 -29 44 18 51 29 32 45 -19
15 -20 50 -2 50 18 0 47 -32 47 -51 0 -33 49 -50 94 -33 20 8 21 34 2 34 -17
0 -96 71 -96 86 0 11 45 47 73 57 18 7 23 32 7 42 -5 3 -28 1 -50 -6 -31 -9
-40 -17 -40 -34 0 -27 -35 -62 -45 -45 -4 6 -5 61 -3 123 l3 112 -25 1 c-14 1
-35 0 -47 -3z"/>
<path d="M4444 586 c-10 -27 15 -57 44 -54 23 2 27 8 27 33 0 27 -4 30 -33 33
-21 2 -34 -2 -38 -12z"/>
<path d="M3056 553 c-4 -4 -30 -10 -58 -13 -58 -6 -71 -21 -33 -38 23 -11 25
-16 26 -89 0 -43 4 -86 8 -97 13 -34 1 -74 -26 -81 -16 -4 -23 -12 -21 -23 3
-15 16 -17 108 -14 131 4 136 6 149 44 23 66 4 78 -44 28 -24 -25 -37 -30 -65
-28 -33 3 -35 5 -42 48 -10 69 -3 82 38 74 64 -12 69 -11 72 19 l4 29 -59 -4
-58 -3 0 50 c0 48 1 50 29 53 18 2 36 -4 51 -18 35 -33 61 -23 57 20 -2 19 -9
38 -15 42 -15 10 -111 10 -121 1z"/>
<path d="M4950 520 c-8 -5 -38 -10 -66 -10 -63 0 -84 -18 -54 -45 25 -23 28
-115 5 -139 -27 -26 -18 -39 23 -32 20 3 45 6 54 6 14 0 16 4 9 23 -41 101
-35 147 19 147 43 0 57 -49 36 -122 -14 -48 -4 -58 45 -44 48 14 57 27 34 46
-8 7 -15 28 -15 50 0 66 -10 96 -40 113 -33 20 -31 19 -50 7z"/>
<path d="M1438 494 c-32 -17 -35 -30 -12 -56 10 -10 18 -33 19 -50 1 -18 6
-76 10 -128 7 -89 6 -96 -14 -114 -11 -11 -21 -23 -21 -28 0 -9 45 -11 78 -2
22 6 30 38 12 49 -13 8 -13 45 0 45 17 0 60 -51 60 -71 0 -20 10 -22 59 -13
21 5 31 12 31 25 0 11 -6 19 -14 19 -8 0 -33 18 -57 40 l-42 39 24 20 c13 11
29 20 36 21 19 0 37 40 24 53 -19 19 -79 -17 -83 -50 -2 -20 -9 -29 -25 -31
-27 -4 -26 -6 -23 132 1 74 -1 101 -11 107 -18 11 -19 11 -51 -7z"/>
<path d="M2504 485 c-32 -30 -36 -75 -10 -104 18 -19 17 -21 -13 -58 -44 -53
-42 -91 6 -133 30 -27 42 -31 71 -26 20 3 38 9 41 13 4 4 19 19 34 33 l29 25
22 -28 c18 -22 32 -28 67 -30 38 -2 44 1 47 20 3 17 -4 24 -31 31 -39 11 -77
40 -77 59 0 16 37 54 65 68 28 15 33 55 6 55 -11 0 -23 -4 -26 -10 -3 -5 -17
-10 -31 -10 -28 0 -42 -24 -25 -44 24 -29 -36 -37 -62 -8 -19 21 -22 42 -7 42
5 0 16 13 25 29 41 79 -63 139 -131 76z m72 -23 c19 -13 23 -39 8 -61 -8 -11
-19 -21 -25 -21 -17 0 -30 49 -19 71 11 20 19 23 36 11z m16 -159 c45 -31 45
-50 1 -76 -30 -17 -33 -17 -57 -1 -39 25 -32 104 8 104 5 0 27 -12 48 -27z"/>
<path d="M4613 488 c-18 -13 -33 -32 -34 -43 -4 -38 2 -70 17 -92 12 -20 12
-23 -3 -32 -15 -8 -16 -12 -4 -35 13 -23 12 -28 -2 -44 -47 -51 1 -112 87
-112 44 0 56 5 89 35 28 26 37 42 37 67 0 60 -36 83 -112 73 l-51 -7 7 37 c5
26 3 44 -9 62 -15 22 -15 26 0 49 18 27 19 28 46 14 21 -12 27 -74 9 -85 -18
-11 -11 -25 13 -25 27 0 57 45 57 84 0 15 7 29 15 32 8 4 15 13 15 20 0 11
-12 15 -42 14 -24 -1 -56 2 -73 5 -22 4 -39 0 -62 -17z m135 -256 c7 -45 -60
-76 -103 -48 -29 19 -31 33 -8 58 13 14 28 18 62 16 39 -3 46 -6 49 -26z"/>
<path d="M4283 483 c-60 -30 -53 -89 13 -123 35 -17 44 -27 42 -43 -6 -38 -27
-33 -61 15 -21 30 -42 7 -31 -34 9 -31 13 -33 58 -36 61 -4 96 23 96 75 0 28
-5 35 -27 43 -39 14 -77 37 -81 48 -6 18 29 22 58 7 38 -20 40 -19 40 9 0 26
-33 56 -60 55 -8 0 -29 -7 -47 -16z"/>
<path d="M4460 479 c-34 -14 -35 -16 -16 -38 14 -15 17 -32 14 -78 -2 -32 -8
-66 -13 -77 -7 -17 -5 -18 36 -11 54 9 64 17 50 43 -6 11 -11 55 -11 96 0 82
-4 87 -60 65z"/>
<path d="M4073 458 c-90 -63 -50 -208 57 -208 40 0 80 29 80 57 0 15 -36 18
-45 3 -10 -17 -51 -11 -70 10 -13 15 -16 30 -12 61 7 50 18 63 47 54 20 -6 21
-8 4 -26 -16 -18 -15 -19 10 -29 38 -14 69 3 61 33 -9 30 -52 67 -78 67 -12 0
-37 -10 -54 -22z"/>
<path d="M653 452 c-38 -18 -42 -35 -12 -48 16 -7 22 -20 24 -49 17 -235 17
-233 -5 -240 -28 -9 -22 -40 8 -39 12 0 67 1 122 2 74 2 100 5 100 15 0 7 -27
37 -61 66 l-61 54 28 23 c15 13 35 24 46 24 11 0 18 7 18 20 0 16 -7 20 -31
20 -47 0 -70 -16 -63 -44 4 -19 1 -24 -20 -28 -22 -5 -26 -2 -27 21 0 14 -1
69 -2 121 -2 105 -6 110 -64 82z m121 -307 c9 -14 14 -30 11 -35 -16 -26 -65
5 -65 41 0 28 34 24 54 -6z"/>
<path d="M3544 427 c-57 -61 -59 -110 -6 -167 50 -51 93 -55 143 -11 31 27 33
34 34 90 0 55 -3 63 -29 86 -39 34 -111 35 -142 2z m111 -47 c21 -40 19 -72
-5 -98 -26 -28 -35 -28 -65 3 -17 16 -25 35 -25 59 0 66 66 92 95 36z"/>
<path d="M265 412 c-15 -10 -35 -59 -35 -84 0 -12 -6 -29 -14 -37 -7 -9 -24
-49 -37 -90 -13 -42 -36 -87 -52 -104 -42 -45 -30 -61 41 -52 66 8 73 12 49
29 -17 13 -23 61 -9 83 7 11 98 22 104 12 29 -46 38 -89 18 -89 -5 0 -10 -6
-10 -13 0 -16 112 -16 117 0 2 5 -10 27 -27 48 -16 21 -30 43 -30 50 0 7 -7
26 -15 41 -8 16 -15 36 -15 45 0 8 -4 19 -9 25 -5 5 -19 36 -30 68 -23 66 -31
79 -46 68z m19 -128 c13 -34 6 -73 -14 -79 -11 -3 -24 -3 -30 0 -16 10 -12 62
6 79 20 20 30 20 38 0z"/>
<path d="M916 405 c-10 -28 12 -57 42 -53 23 2 27 8 27 33 0 26 -4 30 -31 33
-22 2 -33 -2 -38 -13z"/>
<path d="M1697 365 c-7 -51 15 -199 34 -221 18 -21 93 -15 97 8 2 12 -6 20
-30 26 -29 7 -33 12 -36 47 -5 56 5 83 30 87 13 2 24 11 26 21 3 13 -3 17 -27
17 -28 0 -31 3 -31 30 0 26 -3 30 -29 30 -26 0 -29 -4 -34 -45z"/>
<path d="M1067 373 c-11 -20 -17 -102 -7 -108 5 -3 10 -32 10 -63 0 -79 18
-104 73 -100 34 2 42 7 42 23 0 15 -7 20 -25 20 -22 0 -26 5 -32 45 -8 58 -3
74 27 88 36 17 32 42 -6 42 -27 0 -30 3 -27 28 3 23 -1 27 -24 30 -14 2 -28 0
-31 -5z"/>
<path d="M2235 371 c-3 -6 -29 -11 -56 -11 -37 0 -51 -4 -56 -16 -4 -10 0 -20
10 -26 20 -10 23 -90 7 -133 -14 -36 -6 -45 33 -34 17 4 44 11 60 14 33 7 35
17 5 30 -20 9 -23 18 -23 65 0 49 2 55 20 53 31 -3 57 16 53 40 -3 24 -41 36
-53 18z"/>
<path d="M1868 353 c-20 -5 -23 -24 -8 -39 6 -6 13 -41 17 -78 5 -56 10 -70
31 -87 26 -20 74 -19 96 2 5 4 17 4 28 -2 12 -6 25 -6 38 1 24 13 26 33 5 50
-11 9 -15 33 -15 86 l0 74 -40 0 c-49 0 -64 -23 -31 -46 12 -9 19 -19 16 -23
-2 -5 0 -23 5 -41 8 -28 6 -37 -10 -52 -45 -42 -74 -4 -72 95 1 31 -3 57 -8
57 -4 0 -14 2 -22 4 -7 2 -21 2 -30 -1z"/>
<path d="M1271 323 c-38 -15 -55 -47 -56 -105 0 -50 4 -61 27 -83 41 -38 81
-42 123 -14 19 13 35 30 35 37 0 14 -56 17 -64 3 -9 -14 -45 -1 -61 22 -27 39
-19 46 53 49 59 3 67 5 70 24 5 32 -41 74 -80 73 -18 0 -39 -3 -47 -6z m60
-48 c0 -5 -7 -12 -16 -13 -23 -5 -47 6 -40 19 8 13 56 8 56 -6z"/>
<path d="M927 294 l-29 -16 21 -22 c24 -26 28 -81 9 -133 -14 -38 -5 -52 22
-35 11 7 31 12 45 12 26 0 35 26 15 46 -6 6 -13 35 -16 65 -11 108 -14 112
-67 83z"/>
<path d="M556 283 c-13 -13 -20 -15 -23 -5 -7 18 -38 14 -58 -8 -17 -19 -17
-21 -2 -38 19 -21 24 -122 7 -122 -5 0 -10 -9 -10 -20 0 -17 7 -20 44 -20 24
0 51 3 60 6 24 9 19 33 -9 40 -22 6 -25 11 -25 55 0 51 1 52 53 64 24 5 28 10
25 33 -4 33 -35 41 -62 15z"/>
</g>
</svg>
